custom-analysis
version=1
nRows=9
nColumns=42
inDegrees=no

This file contains tibia displacement and acting force.

Units are S.I. units (seconds, meters, Newtons, ...)
Angles are in degrees.

endheader
time	APT	SIT	knee_angle	aACL_R_force	pACL_R_force	aPCL_R_force	pPCL_R_force	aMCL_R_force	mMCL_R_force	pMCL_R_force	aLCL_R_force	mLCL_R_force	pLCL_R_force	aACL_R_length	pACL_R_length	aPCL_R_length	pPCL_R_length	aMCL_R_length	mMCL_R_length	pMCL_R_length	aLCL_R_length	mLCL_R_length	pLCL_R_length	aACL_R_strain	pACL_R_strain	aPCL_R_strain	pPCL_R_strain	aMCL_R_strain	mMCL_R_strain	pMCL_R_strain	aLCL_R_strain	mLCL_R_strain	pLCL_R_strain	femur_lat_meniscii_force_r	femur_lat_meniscii_torque_r	femur_med_meniscii_force_r	femur_med_meniscii_torque_r	femur_lat_tibia_force_r	femur_lat_tibia_torque_r	femur_med_tibia_force_r	femur_med_tibia_torque_r
      0.00000000	      0.00000000	      0.00000000	     15.00005728	     14.77615825	      8.32876802	      0.19485120	     75.99576998	      0.22366969	      8.10997858	      6.83469985	      0.00000000	      0.00000000	      0.00000000	      0.03311279	      0.02662436	      0.03114765	      0.03089680	      0.05836311	      0.06187900	      0.06256123	      0.05546224	      0.05309920	      0.05036743	      0.04438642	      0.02960933	      0.00168351	      0.02688795	      0.00579228	      0.03487831	      0.03018764	     -0.00919938	     -0.05716413	     -0.03773735	    115.94732200	     26.91332212	      0.00000000	      0.00000000	      0.00000000	      0.00000000	      0.00000000	      0.00000000
      0.00100000	      0.00000287	      0.00003654	     15.00005728	     -7.45840193	    -15.02058301	    -18.89155049	     20.85892521	    -43.36826632	    -36.00423963	    -36.73956866	      0.00000000	      0.00000000	      0.00000000	      0.03308203	      0.02659320	      0.03111754	      0.03086601	      0.05832871	      0.06184439	      0.06252701	      0.05542687	      0.05306378	      0.05033210	      0.04341627	      0.02840449	      0.00071510	      0.02586455	      0.00519954	      0.03429956	      0.02962410	     -0.00983126	     -0.05779298	     -0.03841228	    129.80222882	     29.95707642	      0.00000000	      0.00000000	      0.00000000	      0.00000000	      0.00000000	      0.00000000
      0.00259138	      0.00001721	      0.00017273	     15.00005728	    -23.09702694	    -32.04713265	      0.00000000	    -19.32777440	    -63.69099655	    -57.50880095	    -57.54013719	      0.00000000	      0.00000000	      0.00000000	      0.03296077	      0.02646859	      0.03100953	      0.03075558	      0.05820432	      0.06171891	      0.06240342	      0.05529779	      0.05293480	      0.05020370	      0.03959144	      0.02358535	     -0.00275842	      0.02219439	      0.00305575	      0.03220098	      0.02758885	     -0.01213733	     -0.06008312	     -0.04086520	    134.54321146	     31.20817837	      0.00000000	      0.00000000	      0.00000000	      0.00000000	      0.00000000	      0.00000000
      0.00418275	      0.00004626	      0.00032851	     15.00005728	    -26.08956748	    -35.77662479	      0.00000000	    -33.04442740	    -58.26679784	    -53.24021784	    -52.67719815	      0.00000000	      0.00000000	      0.00000000	      0.03281541	      0.02631604	      0.03088902	      0.03063282	      0.05806834	      0.06158117	      0.06226883	      0.05515281	      0.05279061	      0.05006059	      0.03500697	      0.01768597	     -0.00663373	      0.01811448	      0.00071247	      0.02989747	      0.02537259	     -0.01472732	     -0.06264335	     -0.04359930	    118.91117179	     25.93629589	      0.00000000	      0.00000000	      0.00000000	      0.00000000	      0.00000000	      0.00000000
      0.00607386	      0.00010295	      0.00050138	     15.00005728	    -26.53399502	    -36.25940768	      0.00000000	    -46.59484220	      0.00000000	    -48.36988687	    -47.21682215	      0.00000000	      0.00000000	      0.00000000	      0.03264990	      0.02613766	      0.03075515	      0.03049753	      0.05792621	      0.06143634	      0.06212908	      0.05499343	      0.05263325	      0.04990498	      0.02978656	      0.01078798	     -0.01093886	      0.01361797	     -0.00173693	      0.02747522	      0.02307144	     -0.01757450	     -0.06543755	     -0.04657228	    115.88964814	     25.96357798	      0.00000000	      0.00000000	      0.00000000	      0.00000000	      0.00000000	      0.00000000
      0.00767558	      0.00016805	      0.00063334	     15.00005728	    -22.69273195	    -31.88937360	      0.00000000	    -45.42064845	      0.00000000	    -37.05129326	    -35.55980390	      0.00000000	      0.00000000	      0.00000000	      0.03252462	      0.02599913	      0.03064974	      0.03039205	      0.05782385	      0.06133138	      0.06202927	      0.05487116	      0.05251345	      0.04978689	      0.02583513	      0.00543073	     -0.01432888	      0.01011217	     -0.00350098	      0.02571986	      0.02142782	     -0.01975875	     -0.06756476	     -0.04882846	    127.92712796	     29.12091993	      0.00000000	      0.00000000	      0.00000000	      0.00000000	      0.00000000	      0.00000000
      0.00927729	      0.00024481	      0.00073946	     15.00005728	    -17.84033261	    -26.24454778	      0.00000000	    -39.27286753	      0.00000000	    -25.05349553	    -23.35188560	      0.00000000	      0.00000000	      0.00000000	      0.03242358	      0.02588332	      0.03056257	      0.03030597	      0.05774919	      0.06125399	      0.06195747	      0.05477290	      0.05241825	      0.04969352	      0.02264839	      0.00095212	     -0.01713211	      0.00725125	     -0.00478756	      0.02442552	      0.02024555	     -0.02151414	     -0.06925514	     -0.05061214	    137.20077165	     31.83295739	      0.00000000	      0.00000000	      0.00000000	      0.00000000	      0.00000000	      0.00000000
      0.01067457	      0.00031756	      0.00081517	     15.00005728	    -16.74851371	      0.00000000	      0.00000000	    -35.07163698	      0.00000000	    -19.15035882	    -17.30459746	      0.00000000	      0.00000000	      0.00000000	      0.03235027	      0.02579623	      0.03049980	      0.03024484	      0.05770239	      0.06120471	      0.06191330	      0.05470341	      0.05235177	      0.04962874	      0.02033627	     -0.00241600	     -0.01915075	      0.00521931	     -0.00559407	      0.02360135	      0.01951815	     -0.02275554	     -0.07043559	     -0.05184978	    141.15608487	     33.19017039	      0.00000000	      0.00000000	      1.95993387	      0.06926081	      0.00000000	      0.00000000
      0.01207184	      0.00039191	      0.00088102	     15.00005728	    -14.78451154	      0.00000000	      0.00000000	    -28.86759810	      0.00000000	    -12.62911949	    -10.73661117	      0.00000000	      0.00000000	      0.00000000	      0.03228343	      0.02571489	      0.03044734	      0.03019434	      0.05766731	      0.06116704	      0.06188084	      0.05464461	      0.05229615	      0.04957494	      0.01822803	     -0.00556145	     -0.02083790	      0.00354101	     -0.00619861	      0.02297133	      0.01898368	     -0.02380597	     -0.07142305	     -0.05287759	    147.27272134	     34.96347679	      0.29783439	      0.08557302	     19.06580408	      0.67310977	      0.00000000	      0.00000000
